# xmcd
#
# Track frame offsets:
#	183
#	15498
#	28768
#	40275
#	52618
#	67145
#	76810
#	88108
#	101860
#	115393
#	127088
#	138933
#	156378
#	168770
#
# Disc length: 2430
#
# Revision: 5
# Processed by: cddbd v1.5.1PL0 Copyright (c) Steve Scherf et al.
# Submitted via: CDex 1.51
# Normalized: r4:DSETVAR1
#
DISCID=b7097c0e
DTITLE=Various Artist - Superhits der 60er - Folge 2
DYEAR=1900
DGENRE=Oldies
TTITLE0=Melina Mercouri - Ein Schiff wird kommen
TTITLE1=Freddy Quinn - Melodie der Nacht
TTITLE2=Blue Diamonds - Ramona
TTITLE3=Bill Ramsey - Zuckerpuppe
TTITLE4=Peter Alexander - Bist du einsam heut Nacht
TTITLE5=Gus Backus - Sauerkraut Polka
TTITLE6=Siw Malmquist - Liebeskummer lohnt sich nicht
TTITLE7=Roy Black - Ganz in Weiß
TTITLE8=Mina - Heißer Sand
TTITLE9=Graham Bonny - Hey little Lady
TTITLE10=Peter Kraus - Schwarze Rose,Rosemarie
TTITLE11=Freddy Quinn - La Paloma
TTITLE12=Rene Carol - Kein Land kann schöner sein
TTITLE13=Wencke Myhre - Er steht im Tor
EXTD=
EXTT0=
EXTT1=
EXTT2=
EXTT3=
EXTT4=
EXTT5=
EXTT6=
EXTT7=
EXTT8=
EXTT9=
EXTT10=
EXTT11=
EXTT12=
EXTT13=
PLAYORDER=
